<?xml version="1.0" encoding="utf-8"?>
<!-- Generator: Adobe Illustrator 19.1.0, SVG Export Plug-In . SVG Version: 6.00 Build 0)  -->
<!DOCTYPE svg PUBLIC "-//W3C//DTD SVG 1.1//EN" "http://www.w3.org/Graphics/SVG/1.1/DTD/svg11.dtd">
<svg version="1.1" id="Layer_1" xmlns="http://www.w3.org/2000/svg" xmlns:xlink="http://www.w3.org/1999/xlink" x="0px" y="0px"
	 viewBox="0 0 350 82.4" style="enable-background:new 0 0 350 82.4;" xml:space="preserve">
<style type="text/css">
	.st0{display:none;fill:none;}
	.st1{fill:#FFFFFF;}
</style>
<rect x="-14.6" y="-40.6" class="st0" width="383.3" height="173.6"/>
<g>
	<path class="st1" d="M71.3,60.8c-1.5-0.2-3.1-0.3-4.2-1.4c-1.3-1-1.6-2.8-1.6-4.4c0-11.8,0-23.7,0-35.5c-3.3,0-6.5,0-9.8,0
		c0,12,0,24.1,0,36.1c0,4.4,1.5,9.2,5.3,11.7c3,2.1,6.8,2.3,10.3,1.9C71.3,66.4,71.3,63.6,71.3,60.8z"/>
	<path class="st1" d="M158.8,19.3c-4.8-0.3-10.1,0.8-13.5,4.5c-2.3,2.3-3.2,5.6-3.1,8.8c0,12.2,0,24.4,0,36.6c3.3,0,6.5,0,9.8,0
		c0-7.2,0.1-14.4-0.1-21.5c2.2,0.1,4.4,0,6.6,0.1c0-3.3-0.1-6.6,0-9.9c-2.2,0.1-4.4,0-6.5,0.1c0.1-2.2-0.3-4.6,0.3-6.8
		c1.3-2.4,4.5-1.8,6.6-2.6C158.9,25.5,158.8,22.4,158.8,19.3z"/>
	<path class="st1" d="M174.9,56.1c-0.1-12.2,0-24.4,0-36.6c-3.3,0-6.5,0-9.8,0c0,12.2,0,24.4,0,36.6c0,4.3,1.8,8.9,5.6,11.3
		c2.9,1.9,6.6,2.1,10,1.8c0-2.8,0-5.6,0-8.4C178,60.8,174.9,59.2,174.9,56.1z"/>
	<path class="st1" d="M136.4,42.8c-0.6-5-4.8-8.9-9.5-10c-6-1.5-13.3-0.2-17.1,5c-2.8,3.6-2.2,8.3-2.2,12.5
		c0.2,4.5-0.7,9.4,1.9,13.4c5.7,8.4,20.4,8.3,25.5-0.7c-2.1-1.5-4.2-2.9-6.3-4.4c-2.4,2.9-7.1,3.6-10.1,1.1c-1.4-1.1-1.1-3-1.4-4.6
		c6.4,0.1,12.9,0,19.3,0C136.5,51.1,136.8,46.9,136.4,42.8z M127.4,48c-3.4,0-6.7,0-10.1,0c0.2-2-0.5-4.5,1.3-5.9
		c2.2-1.7,5.6-1.6,7.8,0.2C128,43.8,127.3,46.1,127.4,48z"/>
	<path class="st1" d="M94,32.7c0.1,9.6,0.2,19.2,0,28.8c-2.3,0.4-4.9,0.5-7-0.8c-1.8-1.1-2.7-3.2-2.6-5.3c0.1-7.6-0.1-15.2,0.1-22.8
		c-3.3,0.1-6.6,0.1-9.9,0c0.2,7.9,0,15.8,0.1,23.7c0,2.5,0.5,5.1,1.7,7.4c1.8,3.1,5.2,4.9,8.7,5.6c6,1.1,12.1-0.1,17.8-1.9
		c1.2-0.1,0.8-1.4,0.9-2.2c0-10.8-0.1-21.6,0-32.4C100.6,32.8,97.3,32.8,94,32.7z"/>
	<path class="st1" d="M203.3,32.8c0.1,9.4,0,18.9,0,28.3c-2.6,0.9-5.8,1.2-8.2-0.6c-1.2-0.9-1.6-2.4-1.5-3.8c0-8-0.1-15.9,0.1-23.9
		c-3.2,0.1-6.3,0.1-9.5,0c0.1,8.6,0,17.1,0.1,25.7c0,3.6,1.9,7.2,5,9c4.2,2.7,9.7,2.7,14.3,1.3c-0.3,1.5-0.7,3.3-2,4.2
		c-3.3,2.4-8.2,1.6-11.2-0.9c-1.6,1.7-3.2,3.3-4.9,5c5.5,6.1,15.7,7.2,22.3,2.2c3.5-2.5,5.3-6.9,5.3-11.2c0.1-11.8,0-23.5,0.1-35.3
		C209.9,32.8,206.6,32.8,203.3,32.8z"/>
	<g>
		<path class="st1" d="M50.4,48.4c-1-2.7-3.3-4.7-5.8-6c6-3.8,5.7-12.8,1.6-17.9c-0.1-0.2-0.3-0.3-0.4-0.5l-1.6-5l-1.4,2.5l-0.7-0.2
			l0,0l1.2-1.4l-0.2,0l1.1-0.9l-3.9-0.7l0-0.6l-0.5,0.5L39.4,18l1-0.4l-4.3-2.2l0.2-0.3L34.9,14l1.7-0.8l-5.4-1.6l2.3,4.7l0.7-1.6
			l1.6,1.3l0,0l0.3,0.8l-1.9-0.1l-0.1,1.1l2.1,0.2l-0.6,1.6l3.4-1.3l0.4,0.5l-1.1,1l-0.2,0l0,0.1l-1.4,1.4l0.7,0l-1.4,3.6l-0.3-0.5
			l-1.5,5l0.6-0.3l-0.1,0.2c0.1,0,0.2,0,0.4,0c0.3,0,0.6,0.1,0.9,0.1l0.2,1.3l1-0.2L37,29.9c1.4,0.8,2.5,2.4,2.3,4.1
			c-0.1,2.5-2.4,4.4-4.8,4.5c-3.4,0.2-6.8,0-10.2,0.1c0-0.4,0-0.9,0-1.3l0,0l-1.5-1.4l1.5-0.9l-2.3-0.8L22,33.8l0.1-0.6l2.5-0.2
			l-1.3-1.2l1.8-1l-0.5-0.9L23,30.7L22.9,29l1.2,0.3l-2.3-4.7L20,29l-2.1-1.6l0.3,2.7l-1.2,0.5l1-3.2l-2.3,1.1l-0.6-1l1.7-0.5
			l-4.4-2.8l0.9,5.4l-0.4,0.2l1.7,0.5l-1.3,1.4l0.6,0.6v0.6l-0.6,4.4l0.6-0.5v32c6.3,0.3,12.6,0,18.9,0.1c4.7,0.1,9.7-0.6,13.6-3.6
			C51.2,61.5,52.7,54.1,50.4,48.4z M44.3,27l0.4-0.8l-0.2,0.6L44.3,27z M44.9,25.4l-0.6-0.9l0.1-1.1l0.9,0.5L44.9,25.4z M41.7,22.2
			l-0.1,0.5l0,0l0-0.5L41.7,22.2z M41.3,25.5l-1.7-0.3l0.1-0.1l0.3,0.1l-0.2-0.4l0.7-1.5l-1-0.5l-0.4,0.7l-0.3-0.6l0.4-1l0.3,0.4
			l-0.1,0.2l0.7,0.5l0.3,0.3l0-0.1l0.7,0.5l-1.4,1.1l5,0.8l0,0.1L40,26.8l1.2,0.8l-2.8,0.8l-0.1,0L38,28.3L38,28.2L41.3,25.5z
			 M38.4,21.4l-0.1,0.3l-0.1-0.3L38.4,21.4z M37.2,24.9l0,1.9l0.1,0l0,0.5l-1.1-1.8L37.2,24.9z M18.3,32.6l-0.1-0.2l0.1,0L18.3,32.6
			L18.3,32.6z M22.5,29.3l0-0.5l0.3,0.1L22.5,29.3z M15.3,31.2l-0.1-0.1l0.2-0.2l0.1,0.2L15.3,31.2z M14.2,28.3l0.4,0.7l-1.2,0.5
			L14.2,28.3z M35.5,58.7c-3.7,0.4-7.5,0-11.2,0.2c0-3.8,0.1-7.7,0-11.5c3.7,0.3,7.5-0.2,11.2,0.2c2.7,0.3,5.5,2.4,5.5,5.3
			C41.2,56,38.4,58.4,35.5,58.7z"/>
		<polygon class="st1" points="22.6,22.8 24.1,23.4 24,23.6 25.2,24.2 21.7,24.6 25.7,28.1 25.6,26.3 27.6,26.9 27.9,25.9 
			29.8,26.1 28.2,23.9 28.8,24.3 29.2,23.6 29.8,26.1 30.4,25.1 31.4,25.8 29.7,26.6 30.2,27.6 32.1,26.7 32.3,28.4 35.6,24.4 
			30.7,24.7 32.5,21.9 33.1,23.4 33.9,21.8 35.4,23.3 36.1,22.5 34.8,21.2 36.5,20.6 31.3,18.4 32.4,21.5 31.1,21.8 31.5,20 
			31.2,19.9 31.3,18.4 26.9,22 28.7,22.1 27.9,23.6 26.6,21.9 26.3,23.6 24.8,22.8 24.9,22.6 23.2,21.9 24.5,20.6 18.8,20.7 
			22.4,24.5 		"/>
		<path class="st1" d="M16.3,25.8l1.7-0.6L17.8,27l1.1,0.1l0.2-2.1l1.6,0.6l-1.8-4.9l-0.7,1.3l-1.8,0.5l0.3-1.8l-2,1.5l0.3-0.5
			l-1.6-1l1.5-1L9.4,19l2.9,4.3l0.4-1.7l1.6,1l-2.1,1.7l4.4,0.8L16.3,25.8z M16.4,23.6l1.1-0.3l-0.6,1.1L16.4,23.6z"/>
		<polygon class="st1" points="28.9,15.5 28.4,16.8 25.6,14.9 26.3,20 27.5,18.7 28.6,20.4 29.5,19.8 28.5,18.3 30.3,18 29.3,17.4 
			30,15.7 31.4,16.8 31.1,11.6 27.1,15.6 		"/>
		<polygon class="st1" points="23.6,12 24.2,14 25.2,13.7 24.7,12 26.5,12.2 22.8,7.9 22.1,13 		"/>
		<polygon class="st1" points="18.9,9.9 17.3,11 17.9,11.9 19.7,10.7 20.2,12.4 22.8,7.9 17.3,9 		"/>
		<polygon class="st1" points="10.6,9.5 10.7,14.7 12,13.5 12.9,15.4 13.8,14.9 13,13.3 14.8,13.2 		"/>
		<polygon class="st1" points="7,12.2 5.6,13.4 6.4,14.2 7.9,12.8 8.7,14.4 10.6,9.5 5.3,11.5 		"/>
		<polygon class="st1" points="4.5,6.1 3.9,8.1 4.9,8.4 5.5,6.7 6.8,7.9 6.3,2.3 2.8,6.1 		"/>
		<polygon class="st1" points="6.3,2.3 1.1,0.1 1.9,1.7 0,1.7 0,2.8 2.1,2.8 1.6,4.5 		"/>
		<polygon class="st1" points="7.8,23.2 7.3,25 8.4,25.2 8.9,23.2 10.4,24.1 9.4,19 6,23.5 		"/>
		<polygon class="st1" points="7.8,17.4 9.8,18 10.1,17 8.3,16.5 9.5,15.1 3.9,15.8 7.8,19.2 		"/>
		<polygon class="st1" points="6.2,20.4 3.9,15.8 1.8,21 3.4,20.2 3.5,22.1 4.5,22.1 4.5,20 		"/>
		<polygon class="st1" points="14.8,9.4 13.7,4.3 12.7,5.7 11.4,4.1 10.5,4.8 11.7,6.2 9.9,6.6 		"/>
		<polygon class="st1" points="17.8,6.1 18.9,4.5 18,3.9 16.8,5.6 15.7,4.3 14.8,9.4 19.6,6.4 		"/>
		<polygon class="st1" points="20.5,15.9 22.2,15.3 16.9,13.2 18.8,18.1 19.6,16.5 21.1,18 21.4,17.7 22.3,17.9 21.2,19.3 22,20 
			23.3,18.4 24.3,19.9 25.6,14.9 21.5,17 		"/>
		<polygon class="st1" points="14.4,16.9 13.6,18.5 14.5,19 15.5,17.2 16.7,18.4 16.9,13.2 12.6,16.8 		"/>
	</g>
	<g>
		<path class="st1" d="M234,32.8c-4.5,0-9.1,0-13.6,0c0,12.5,0,24.9,0,37.4c3.7,0,7.4,0,11.1,0c3.6,0.1,7.5-0.2,10.5-2.4
			c2.5-1.7,3.8-4.7,3.8-7.6c0.1-5.4,0-10.8,0-16.2c0.1-2.6-0.4-5.3-2.1-7.3C241.3,33.9,237.5,32.9,234,32.8z M243.7,60.1
			c0,2.1-0.8,4.2-2.5,5.6c-2.1,1.8-5,2.3-7.7,2.4c-3.7,0-7.4,0-11.1,0c0-11.1,0-22.2,0-33.3c3.8,0,7.7,0,11.5,0
			c2.9,0.1,6.1,0.8,8,3.1c1.3,1.5,1.8,3.6,1.7,5.6C243.7,49.1,243.8,54.6,243.7,60.1z"/>
		<path class="st1" d="M303.6,61.4c0-5.6,0-11.2,0-16.8c2,0,4,0,6,0c0-0.7,0-1.3,0-2c-2,0.1-4,0-6,0c0-3.4,0-6.7,0-10.1
			c-0.6,0-1.3,0-1.9,0c0,8.7,0,17.4,0,26.2c0,2.6-0.2,5.4,1.2,7.6c1.6,2.7,5,3.7,7.9,3.7c0-0.6,0-1.2,0-1.9c-2-0.1-4.2-0.6-5.6-2.1
			C303.9,65,303.6,63.2,303.6,61.4z"/>
		<path class="st1" d="M346.3,67.2c-1.5-1.3-1.7-3.5-1.7-5.3c0-9.7,0-19.4,0-29.1c-0.7,0-1.3,0-1.9,0c0.1,9.8,0,19.6,0,29.5
			c0,2.4,0.6,5,2.5,6.5c1.3,1.1,3.1,1.4,4.8,1.6v-1.9C348.7,68.3,347.3,68.2,346.3,67.2z"/>
		<path class="st1" d="M253.3,33.3c-0.9,0.4-1.3,1.7-0.7,2.5c0.6,1.4,2.9,1.2,3.3-0.3C256.5,34.1,254.7,32.5,253.3,33.3z"/>
		<path class="st1" d="M291.1,33.3c-0.9,0.4-1.3,1.7-0.7,2.5c0.6,1.4,2.9,1.2,3.3-0.3C294.4,34.1,292.5,32.5,291.1,33.3z"/>
		<path class="st1" d="M272.7,42.2c-3.1,0-6.4,1.2-8.3,3.8c-1.1,1.4-1.4,3.2-1.3,5c0,3.9,0,7.8,0,11.7c0.1,3,2.1,5.6,4.8,6.8
			c4.1,1.9,8.9,1,12.9-0.9c-0.1,1.9,0.2,3.9-0.7,5.6c-1,2-3.2,3-5.3,3.3c-3.1,0.5-6.5-0.2-9-2.2c-0.4,0.4-0.8,0.8-1.2,1.3
			c3.9,3.2,9.8,3.8,14.2,1.4c2.4-1.3,3.8-3.9,3.8-6.6c0-9.1,0-18.2,0-27.2C279.4,43.2,276.1,42.1,272.7,42.2z M271.4,68.5
			c-2.1-0.3-4.2-1.1-5.4-3c-0.9-1.2-1-2.7-1-4.2c0-3.9-0.1-7.8,0-11.6c0.1-2.4,2-4.4,4.2-5.1c3.8-1.2,7.9-0.4,11.6,0.9
			c0,7,0,14.1,0,21.1C277.8,68,274.6,69,271.4,68.5z"/>
		<path class="st1" d="M253.3,70.2c0.6,0,1.3,0,1.9,0c0-9.2,0-18.3,0-27.5c-0.6,0-1.3,0-1.9,0C253.3,51.9,253.3,61.1,253.3,70.2z"/>
		<path class="st1" d="M291.1,70.2c0.6,0,1.3,0,1.9,0c0-9.2,0-18.3,0-27.5c-0.6,0-1.3,0-1.9,0C291.2,51.9,291.1,61.1,291.1,70.2z"/>
		<path class="st1" d="M329.8,43.3c-4.3-1.7-9.7-1.1-13,2.3c0.4,0.4,0.8,0.8,1.2,1.3c3.5-3.3,9.4-3.6,13.2-0.6
			c2.5,2.1,1.6,5.6,1.8,8.5c-2.8-1.3-6-1.7-9.1-1.5c-2.8,0.3-5.7,1.4-7.3,3.8c-2.1,3.2-1.7,7.8,0.8,10.6c1.5,1.8,3.8,2.8,6.2,2.9
			c3.8,0.2,7.7-0.4,11.4-1.5c0-6.3,0-12.6,0-18.9C334.8,47.1,332.7,44.4,329.8,43.3z M332.9,68c-3.1,0.7-6.3,1.1-9.5,0.9
			c-2.1-0.2-4.1-1.2-5.2-3c-1.3-2-1.5-4.6-0.7-6.8c0.7-1.9,2.5-3.3,4.4-3.8c3.7-1,7.6-0.2,11.1,1.2C332.9,60.3,332.9,64.2,332.9,68z
			"/>
	</g>
</g>
<g>
</g>
<g>
</g>
<g>
</g>
<g>
</g>
<g>
</g>
<g>
</g>
</svg>
